<!DOCTYPE svg PUBLIC "-//W3C//DTD SVG 1.1//EN" "http://www.w3.org/Graphics/SVG/1.1/DTD/svg11.dtd">
  <svg xmlns="http://www.w3.org/2000/svg" viewBox="0 0 800 848">
  <path fill="#2f74fb" d="M171.879.454c-.338.338-4.386 1.03-8.997 1.538-13.65 1.505-23.317 3.135-24.332 4.102-.523.498-1.991.906-3.264.906-1.272 0-3.095.395-4.05.877-.955.483-3.536 1.435-5.736 2.115-3.838 1.188-6.475 2.233-13.901 5.508-1.871.825-3.808 1.5-4.304 1.5-.497 0-2.952 1.299-5.456 2.887-2.504 1.588-5.578 3.213-6.83 3.61-2.867.91-18.269 10.906-19.979 12.966-.701.846-1.857 1.537-2.569 1.537s-1.444.337-1.628.75c-.183.413-3.69 3.675-7.792 7.25-4.103 3.575-8.603 7.643-10 9.041C45.578 62.503 33 77.92 33 79.605c0 .405-.629 1.448-1.397 2.316-1.736 1.961-5.917 9.119-8.809 15.079-1.2 2.475-2.46 4.725-2.8 5-.339.275-1.872 3.65-3.405 7.5-1.534 3.85-3.163 7.732-3.62 8.627-.458.895-1.139 3.262-1.514 5.261s-1.081 3.881-1.568 4.182C9.399 127.871 9 129.415 9 131c0 1.585-.4 3.129-.89 3.432-.941.582-1.222 1.94-3.837 18.568-2.928 18.618-1.993 57.635 1.708 71.25.56 2.063 1.522 5.662 2.136 8 1.865 7.093 4.24 14.195 5.085 15.2.439.522.798 1.766.798 2.764 0 .997.413 2.595.918 3.55.505.955 2.863 5.786 5.24 10.736 4.687 9.761 13.531 24.169 16.187 26.372.91.755 1.655 1.955 1.655 2.667 0 .712.338 1.444.75 1.628.413.183 3.206 3.258 6.209 6.833 6.568 7.821 13.974 15.199 20.627 20.548 2.703 2.174 5.064 4.289 5.247 4.702.184.412.794.75 1.356.75s2.437 1.132 4.167 2.515a963.86 963.86 0 0 0 4.144 3.301c.55.431 1.675 1.084 2.5 1.449s4.2 2.252 7.5 4.193c6.736 3.961 15.767 8.384 22.5 11.02 2.475.969 5.625 2.218 7 2.776 1.375.557 3.4 1.377 4.5 1.821 1.1.445 4.25 1.31 7 1.923 2.75.614 6.8 1.565 9 2.113 15.175 3.786 22.001 4.415 46.5 4.286 13.871-.073 22.098-.597 28.5-1.817 4.95-.942 10.467-1.958 12.259-2.257 1.793-.299 3.507-.944 3.809-1.433.303-.49 1.633-.89 2.956-.89 2.23 0 9.286-1.984 13.976-3.931a488.25 488.25 0 0 1 6.5-2.591c26.788-10.486 56.215-32.208 74.5-54.994 2.2-2.741 4.337-5.134 4.75-5.317.413-.184.75-.893.75-1.576s1.125-2.299 2.5-3.591c1.375-1.292 2.5-2.908 2.5-3.591 0-.683.373-1.392.829-1.576 1.148-.462 7.001-10.753 11.564-20.333 2.096-4.4 4.184-8.732 4.64-9.627.457-.895 1.137-3.262 1.512-5.261s1.081-3.881 1.568-4.182c.488-.301.887-2.041.887-3.867 0-1.825.611-3.825 1.358-4.445.993-.824 29.784-1.059 107.061-.873l105.703.255-.09 43.784c-.058 28.204.291 45.285.983 48 2.641 10.372 7.886 16.368 17.056 19.497 6.844 2.336 52.032 1.651 57.394-.87 5.599-2.631 12.535-10.008 12.535-13.33 0-1.354.45-2.741 1-3.081.627-.387.994-10.576.984-27.309l-.015-26.691 2.61-5.027c5.729-11.034 21.731-13.849 31.707-5.578 4.943 4.098 5.711 8.763 5.758 34.982.061 34.05 2.44 41.12 15.699 46.66 4.667 1.95 52.054 2.123 58.523.213 5.597-1.652 15.121-10.915 16.06-15.619.827-4.149.892-156.655.068-160.131-1.581-6.666-5.541-11.755-12.452-16-2.143-1.317-28.06-1.561-211.901-2l-209.459-.5-.842-3.5a292.41 292.41 0 0 1-1.762-8c-1.603-7.839-3.76-14.648-6.095-19.236-.486-.955-.883-2.237-.883-2.849 0-2.012-7.481-17.812-11.56-24.415-1.36-2.2-2.742-4.787-3.072-5.75-.331-.962-.999-1.75-1.485-1.75-.485 0-.883-.48-.883-1.067 0-1.207-4.139-6.946-8.245-11.433-1.51-1.65-2.748-3.375-2.75-3.832-.006-1.065-20.373-21.179-25.57-25.253C291.074 35.645 279.996 28 278.996 28c-.548 0-.996-.398-.996-.883 0-.486-.788-1.136-1.75-1.445-2.128-.683-12.378-6.488-13.7-7.759-.523-.502-1.579-.913-2.349-.913-.769 0-2.929-.675-4.8-1.5-7.471-3.295-10.068-4.313-13.901-5.452-2.2-.653-4.9-1.572-6-2.042-1.1-.471-3.35-1.146-5-1.501s-6.15-1.339-10-2.187c-11.015-2.426-47.185-5.3-48.621-3.864M165.5 90.63c-2.2.233-4.9.81-6 1.283-1.1.472-4.025 1.449-6.5 2.17-13.136 3.828-25.541 11.567-36.109 22.526-7.142 7.406-14.891 17.992-14.891 20.343 0 .576-.34 1.048-.756 1.048s-1.376 1.463-2.134 3.25c-1.814 4.279-4.112 9.76-5.137 12.25-.997 2.424-1.756 5.932-3.137 14.5-1.292 8.015-.509 35.727 1.054 37.29.61.61 1.11 2.118 1.11 3.351s.45 2.519 1 2.859c.55.34 1 1.498 1 2.573s.428 2.736.952 3.691c.523.955 1.737 3.536 2.697 5.736.961 2.2 1.995 4.225 2.299 4.5.304.275 1.417 2.075 2.474 4 3.975 7.241 21.615 27 24.104 27 .64 0 1.878.789 2.75 1.753 1.499 1.656 8.956 5.683 16.724 9.032 1.925.83 4.281 1.893 5.236 2.362.955.469 2.424.853 3.264.853.84 0 2.309.402 3.264.893 9.088 4.676 46.603 4.663 51.686-.018.523-.481 1.766-.875 2.764-.875.997 0 2.595-.432 3.55-.96.955-.528 4.436-2.272 7.736-3.877 9.192-4.469 10.584-5.312 17.017-10.319 12.247-9.531 21.164-20.823 27.515-34.844 1.121-2.475 2.472-5.281 3.003-6.236.531-.955.965-2.616.965-3.691 0-1.075.45-2.233 1-2.573.55-.34 1-1.851 1-3.359s.475-3.216 1.054-3.795c1.59-1.59 2.29-24.793.977-32.346-.622-3.575-1.383-7.967-1.691-9.759-.309-1.793-.961-3.507-1.45-3.809-.49-.303-.89-1.622-.89-2.932 0-1.31-.415-2.639-.923-2.952-.508-.314-1.236-1.995-1.618-3.736-2.435-11.087-19.12-31.989-33.079-41.44C230.938 102.01 216.878 95 214.571 95c-.799 0-1.731-.45-2.071-1-.34-.55-1.851-1-3.359-1s-3.26-.519-3.895-1.154c-1.169-1.169-31.444-2.095-39.746-1.216m221 323.291c-1.1.455-6.166 1.158-11.257 1.56-5.091.403-9.505 1.134-9.809 1.626-.304.491-1.854.893-3.446.893s-3.928.402-5.191.894c-1.263.491-4.997 1.709-8.297 2.705-3.3.997-6.427 2.169-6.95 2.606-.522.437-1.895.795-3.05.795-1.155 0-2.528.376-3.05.835-.523.459-3.141 1.642-5.819 2.628-7.635 2.812-26.572 12.774-30.011 15.787-1.098.962-2.33 1.75-2.737 1.75-.407 0-1.335.58-2.062 1.29-.726.709-3.938 3.153-7.137 5.43-13.421 9.556-36.729 34.356-44.2 47.03-1.053 1.788-2.216 3.25-2.583 3.25s-.939.788-1.27 1.75c-.332.962-1.584 3.325-2.783 5.25-4.765 7.648-11.848 21.284-11.848 22.807 0 .45-.912 2.705-2.026 5.011-1.115 2.307-2.298 5.55-2.629 7.209-.332 1.658-.995 3.257-1.474 3.553-.479.296-.871 1.61-.871 2.92 0 1.31-.398 2.628-.885 2.929-.486.3-1.13 1.79-1.429 3.309-.3 1.519-1.284 5.687-2.187 9.262-8.703 34.447-9.806 83.584-2.605 116a789.625 789.625 0 0 1 2.128 10c1.444 7.032 7.907 26.262 9.293 27.648.377.377.685 1.51.685 2.519 0 1.008.45 1.833 1 1.833s1 .596 1 1.324c0 1.661 9.542 20.34 11.073 21.676.315.275.883 1.175 1.261 2 .655 1.428 1.664 3.009 6.13 9.601 1.08 1.594 3.555 4.911 5.5 7.37 1.945 2.459 4.211 5.37 5.036 6.47 4.067 5.421 24.436 25.007 31.5 30.29 13.276 9.928 26.312 17.535 39 22.759 3.85 1.585 7.472 3.228 8.05 3.652.577.424 2.939 1.073 5.25 1.442 2.31.369 4.2 1.064 4.2 1.544s.873.872 1.941.872 2.219.45 2.559 1c.34.55 1.746 1 3.125 1 1.378 0 3.319.435 4.311.966.993.531 4.451 1.454 7.684 2.05 3.234.596 8.13 1.52 10.88 2.053 14.433 2.794 53.728 3.878 69 1.902 19.995-2.587 36.454-6.383 43.736-10.088.955-.486 2.466-.883 3.357-.883 1.554 0 5.992-1.938 22.407-9.783 6.58-3.145 23.625-13.451 25-15.117.275-.333 3.172-2.629 6.437-5.103 3.265-2.473 9.79-8.393 14.5-13.155 7.26-7.341 10.812-11.364 18.59-21.062 2.143-2.671 10.592-15.928 11.196-17.567.347-.942.902-1.938 1.234-2.213 1.675-1.39 9.11-18.063 11.595-26 .947-3.025 2.068-6.4 2.491-7.5 1.038-2.697 3.628-13.118 4.414-17.758l.637-3.759-55.135.259-55.136.258-2.052 6c-1.129 3.3-2.89 7.194-3.912 8.654-1.022 1.46-1.859 2.942-1.859 3.293 0 4.96-29.169 31.553-34.609 31.553-.324 0-2.232.721-4.24 1.602-12.635 5.544-14.909 5.898-37.852 5.898-15.627 0-21.529-.329-22.45-1.25-.687-.687-2.257-1.25-3.49-1.25s-2.519-.45-2.859-1c-.34-.55-1.528-1-2.64-1-2.43 0-15.089-6.21-19.543-9.586-1.751-1.328-3.551-2.422-4-2.432-1.556-.035-22.317-20.85-22.317-22.375 0-.281-2.025-3.408-4.5-6.948-2.475-3.541-4.5-6.757-4.5-7.147 0-.39-.675-2.24-1.5-4.111l-2.971-6.741c-1.597-3.626-4.172-12.505-5.702-19.66-3.672-17.171-3.633-56.112.073-74.5 2.426-12.036 2.927-14.193 4.063-17.5 9.867-28.732 24.652-47.375 49.537-62.459 3.255-1.973 15.875-6.541 18.071-6.541 1.116 0 2.586-.557 3.266-1.237 1.766-1.766 36.548-1.778 38.313-.013.687.688 2.088 1.25 3.112 1.25 5.782 0 21.382 7.255 30.722 14.288C472.116 527.165 484 539.97 484 542.933c0 .587.363 1.067.808 1.067.444 0 1.641 1.913 2.661 4.25 1.019 2.337 2.145 4.475 2.503 4.75.357.275 2.039 4.775 3.738 10l3.088 9.5 55.101.258c30.305.143 55.085-.082 55.066-.5-.035-.746-2.542-16.648-3.63-23.017-.306-1.793-.956-3.507-1.445-3.809-.49-.303-.89-1.847-.89-3.432s-.411-3.136-.913-3.446c-.502-.311-1.216-2.36-1.587-4.554-.371-2.194-1.085-4.243-1.587-4.554-.502-.31-.913-1.437-.913-2.505 0-1.068-.45-1.941-1-1.941s-1-.7-1-1.556c0-1.455-2.47-6.762-8.12-17.443-1.309-2.474-2.73-4.949-3.159-5.5-.428-.55-3.128-4.397-6-8.548-9.466-13.682-20.173-25.465-31.745-34.934-3.012-2.464-5.626-4.827-5.809-5.25-.184-.423-.794-.769-1.356-.769-.881 0-2.83-1.376-8.519-6.015-.664-.542-1.443-.985-1.73-.985-.288 0-2.894-1.506-5.793-3.347-9.722-6.175-25.498-13.653-28.803-13.653-1.081 0-1.966-.45-1.966-1s-1.035-1-2.3-1-2.727-.374-3.25-.831c-.522-.457-3.875-1.624-7.45-2.594-3.575-.97-7.281-2.171-8.236-2.669-.955-.498-3.026-.906-4.601-.906-1.576 0-4.169-.447-5.764-.994-8.029-2.754-67.611-5.276-72.899-3.085M45 628v208h112V420H45v208" fill-rule="evenodd"/>
  </svg>
