<!DOCTYPE svg PUBLIC "-//W3C//DTD SVG 1.1//EN" "http://www.w3.org/Graphics/SVG/1.1/DTD/svg11.dtd">
<svg xmlns="http://www.w3.org/2000/svg" viewBox="0 0 782 319">
<path fill="#3475f9" stroke="#3475f9" d="M49.973 10.825C-.948 25.026-16.729 89.214 22.068 124.324c34.361 31.095 95.18 15.695 108.898-27.574l1.189-3.75H209v16.435c0 23.547.726 24.565 17.527 24.565 14.028 0 15.473-1.563 15.473-16.735 0-12.177 1.379-15.265 6.816-15.265 6.051 0 7.184 2.065 7.184 13.089 0 17.192 2.16 19.334 18.912 18.757 15.57-.537 14.588 1.839 14.588-35.293V68.161l-2.419-2.574-2.418-2.575-76.479-.256-76.48-.256-1.72-6.285c-5.492-20.063-21.327-36.577-42.149-43.956-9.884-3.502-27.989-4.188-37.862-1.434m8.411 31.587c-29.006 7.039-34.728 46.995-8.899 62.132 13.348 7.823 32.121 5.275 42.04-5.704 22.76-25.192-.272-64.405-33.141-56.428m82.02 116.624C110.622 162.111 86.723 182.768 77.97 213c-3.093 10.683-3.835 31.625-1.524 43.029 7.381 36.428 35.919 59.268 74.054 59.268 35.726 0 63.305-20.514 69.972-52.047l.687-3.25h-40.065l-1.908 4.25c-8.652 19.273-35.686 23.313-52.471 7.842-16.663-15.36-17.312-52.143-1.234-69.94 11.641-12.885 33.75-13.551 45.968-1.385 3.825 3.807 8.551 11.933 8.551 14.7 0 1.328 2.758 1.533 20.611 1.533h20.612l-.677-3.605c-5.472-29.168-30.142-51.771-58.868-53.935-3.948-.298-8.753-.68-10.678-.849-1.925-.169-6.693.022-10.596.425M16.244 236.75l.256 75.75h40l.256-75.75.257-75.75H15.987l.257 75.75m221.446-75.107c-.38.38-.69 34.59-.69 76.024V313h34.932l.284-38.325.284-38.325 2.454-3.58c7.238-10.559 25.115-10.132 30.546.73 1.877 3.754 2.017 6.319 2.284 41.75l.285 37.75H343l-.018-35.75c-.025-51.728-1.394-59.845-11.692-69.337-13.082-12.058-38.585-14.183-53.756-4.478-3.065 1.961-5.677 3.565-5.803 3.565-.127.001-.231-10.237-.231-22.75V161.5l-16.56-.273c-9.108-.151-16.871.037-17.25.416M393 198.492c-18.287 3.137-33.896 17.101-37.51 33.555l-.718 3.267 8.364-.651c4.6-.358 11.846-.654 16.101-.657l7.738-.006 2.512-3.979c5.915-9.37 20.873-10.86 28.281-2.816 2.249 2.441 5.222 13.138 3.994 14.366-1.105 1.105-13.869 3.165-24.262 3.915-17.342 1.253-29.543 5.101-37.036 11.68-14.121 12.398-11.651 39.423 4.798 52.493 12.447 9.89 37.576 9.27 50.405-1.243 4.5-3.687 6.333-4.255 6.333-1.963 0 .799.522 2.599 1.161 4l1.16 2.547h31.912l-.73-2.25c-.402-1.238-1.055-19.575-1.452-40.75-.477-25.421-1.118-39.456-1.887-41.315-.64-1.548-1.164-3.802-1.164-5.008 0-2.594-4.342-11.176-7.368-14.563-9.255-10.358-28.562-14.408-50.632-10.622m216.154.005c-17.544 3.479-31.077 15.644-39.546 35.55-.83 1.951-2.04 7.688-2.689 12.75-3.386 26.398 7.358 50.798 27.586 62.653 16.385 9.602 42.589 9.612 58.954.021 8.893-5.212 20.632-20.839 21.763-28.971.363-2.608 1.059-2.5-16.061-2.5-14.689 0-14.851.024-15.932 2.397-4.59 10.073-25.769 11.79-34.743 2.817-3.343-3.344-6.104-8.662-7.014-13.511l-.695-3.703H677v-8.935c0-13.404-3.841-28.748-8.936-35.699a182.296 182.296 0 0 1-3.064-4.343c-10.558-15.548-33.12-23.033-55.846-18.526M717 198.158c-9.076 1.271-19.933 6.861-25.627 13.194-6.757 7.516-7.728 10.394-7.806 23.148-.09 14.773 3.386 21.153 14.433 26.488 2.475 1.195 5.337 2.622 6.361 3.17 1.024.549 3.949 1.36 6.5 1.804 2.551.443 8.914 1.556 14.139 2.473 17.725 3.111 22.016 5.461 21.986 12.038-.038 8.544-3.974 11.527-15.206 11.527-9.663 0-13.389-2.235-16.28-9.767l-2-5.211-16.329-.011-16.33-.011.684 3.25c3.77 17.901 11.476 27.24 27.975 33.904 6.528 2.637 23.254 3.54 33.066 1.785 28.669-5.127 43.133-25.321 35.189-49.13-4.557-13.658-21.195-23.42-43.332-25.424-13.063-1.182-20.171-6.75-17.341-13.583 3.878-9.363 23.651-7.276 27.927 2.948.917 2.192 1.331 2.25 15.966 2.25 17.166 0 16.351.569 13.66-9.538-5.356-20.111-26.97-29.601-57.635-25.304m-261.993 1.092c.018.648 5.125 15.487 5.937 17.25.506 1.1 2.584 6.95 4.617 13s4.277 12.35 4.987 14c.709 1.65 1.957 5.25 2.772 8 1.168 3.943 9.042 26.62 11.98 34.5.307.825 2.491 7.238 4.852 14.25l4.293 12.75h19.218c12.78 0 19.444-.365 19.892-1.089.37-.599 1.265-3.186 1.988-5.75 1.221-4.329 13.007-39.909 15.456-46.661 1.87-5.157 20.001-59.603 20.001-60.063 0-.241-7.775-.437-17.279-.437h-17.279l-2.417 8.75c-1.329 4.813-2.753 9.425-3.165 10.25-.412.825-2.386 6.9-4.387 13.5-2.001 6.6-5.401 17.59-7.555 24.423-2.155 6.833-3.954 13.583-3.997 15l-.079 2.577-.822-2.5c-.452-1.375-4.511-13.975-9.02-28-4.508-14.025-9.56-29.662-11.225-34.75l-3.028-9.25h-17.873c-9.831 0-17.871.113-17.867.25m157.836 27.013C606.569 229.277 601 236.747 601 242.149c0 .468 9.403.851 20.895.851h20.894l-.736-3.25c-3.049-13.462-16.415-19.634-29.21-13.487m-214.049 41.763C385.402 270.914 383 272.603 383 279.131c0 9.29 10.126 13.923 22.541 10.314 8.384-2.437 14.459-10.593 14.459-19.413V266l-6.25.074c-3.437.041-10.168.92-14.956 1.952" fill-rule="evenodd"/>
<path fill="#19334e" stroke="#19334e" d="M238 237.5V313h33v-74.97l3.044-4.947c6.886-11.191 25.631-12.15 30.947-1.583.83 1.65 1.959 3.321 2.509 3.713.628.447 1.113 15.056 1.305 39.25l.304 38.537H342.244l-.478-43.25c-.471-42.526-.519-43.351-2.839-49.25-2.48-6.305-11.354-16.5-14.362-16.5-.861 0-1.565-.379-1.565-.842 0-2.05-12.66-4.658-22.5-4.633-11.159.028-16.876 1.573-24.034 6.498-2.379 1.638-4.583 2.977-4.896 2.977-.314 0-.57-10.35-.57-23v-23h-33v75.5m156.5-38.85c-4.023.841-13.014 3.674-13.5 4.254-.275.328-2.075 1.324-4 2.214-8.772 4.054-19.253 17.474-20.214 25.882-.363 3.175-1.273 3 15.647 3 14.098 0 14.448-.052 15.115-2.25 3.617-11.927 24.625-14.524 31.757-3.925 2.919 4.339 4.413 13.371 2.461 14.885-.696.541-10.041 1.975-20.766 3.187-20.974 2.371-29.601 4.551-36.546 9.238-13.501 9.113-16.509 27.487-7.262 44.365 9.973 18.204 42.291 22.27 59.138 7.441 5.398-4.752 5.335-4.744 6.218-.724 1.494 6.803 1.442 6.783 17.443 6.784H454.5l-.255-30.25c-.529-62.617-5.168-76.295-28.103-82.853-6.257-1.79-25.435-2.546-31.642-1.248m210.5 1.788c-12.705 4.453-17.713 7.952-25.519 17.83-9.141 11.565-11.795 20.068-11.781 37.732.014 17.383 1.585 23.17 9.993 36.814C586.038 306.355 605.081 316 623.472 316c22.524 0 38.137-9.095 47.813-27.851 5.282-10.238 5.959-9.649-11.105-9.649h-14.821l-2.642 3.71c-9.31 13.076-31.982 9.954-39.686-5.465-3.744-7.491-4.026-11.734-.781-11.769 1.237-.013 18.337-.002 38 .023l35.75.048-.031-7.274c-.11-26.022-9.231-43.795-27.765-54.107-10.771-5.992-31.007-7.504-43.204-3.228m112.5-2.031c-.55.207-3.7 1.169-7 2.138-17.902 5.255-26 15.831-26 33.955 0 21.493 8.17 28.018 42 33.544 17.447 2.85 21.5 5.387 21.5 13.456 0 7.653-5.32 11.5-15.904 11.5-10.014 0-15.893-3.848-18.014-11.791l-.724-2.709-15.679-.275c-17.631-.31-16.678-.854-13.762 7.854 7.006 20.928 20.866 29.88 46.302 29.908 21.086.023 36.324-6.981 44.566-20.485 3.62-5.931 3.66-6.116 3.614-16.616-.095-21.666-11.505-31.458-42.399-36.384-17.543-2.798-23.58-7.612-19.482-15.536 4.883-9.443 25.741-7.176 29.02 3.153.548 1.728 1.781 1.881 15.123 1.881h14.527l-.713-5.25c-1.734-12.775-9.617-21.04-25.475-26.708-3.218-1.15-29.201-2.499-31.5-1.635m-261.235 1.843c.263.688 1.728 5.075 3.255 9.75s3.108 8.95 3.513 9.5c.405.55 1.06 2.575 1.457 4.5.397 1.925 1.311 4.85 2.033 6.5 2.075 4.744 11.493 31.604 12.548 35.784.525 2.081 1.384 4.556 1.91 5.5 1.002 1.8 4.994 13.189 10.241 29.216 4.278 13.067 2.217 12 23.185 12h18.162l4.361-13.75c2.399-7.562 4.694-14.2 5.1-14.75.407-.55 1.063-2.575 1.46-4.5.397-1.925 1.303-4.85 2.015-6.5.712-1.65 3.15-8.85 5.418-16 2.267-7.15 4.505-13.69 4.973-14.533.467-.843 1.179-3.093 1.582-5s1.316-4.817 2.027-6.467c1.388-3.216 10.495-30.897 10.495-31.899 0-.331-7.145-.601-15.878-.601-17.507 0-17.474-.011-18.673 6.407-.402 2.149-1.339 5.074-2.084 6.5-.744 1.426-1.36 3.268-1.368 4.093-.009.825-1.587 6.382-3.507 12.35-1.919 5.967-3.49 11.299-3.49 11.848 0 .55-.659 2.418-1.465 4.151-.806 1.733-1.905 4.951-2.443 7.151s-1.642 6.025-2.453 8.5c-.811 2.475-2.126 6.975-2.922 10l-1.449 5.5-1.707-6c-1.823-6.409-8.295-26.676-9.58-30-.591-1.53-10.351-32.085-12.537-39.25-.286-.937-4.679-1.25-17.52-1.25-13.299 0-17.031.28-16.659 1.25M617 223.626c-8.096 2.527-15.16 9.926-16.666 17.456L599.75 244h43.51l-.501-4.443c-1.216-10.793-14.97-19.299-25.759-15.931m-200.12 40.828c-.25.249-4.699.969-9.888 1.6-21.907 2.664-28.134 7.491-23.615 18.306 2.46 5.887 13.442 8.484 23.76 5.619 4.083-1.134 11.863-8.845 11.863-11.757 0-1.002.412-2.25.916-2.772 3.157-3.276.147-14.18-3.036-10.996" fill-rule="evenodd"/>
</svg>